<svg width="17" height="18" viewBox="0 0 17 18" fill="none" xmlns="http://www.w3.org/2000/svg">
<path d="M6.73562 0C3.01957 0 0 3.01957 0 6.73561C0 10.4517 3.01957 13.4712 6.73562 13.4712C8.20594 13.4712 9.56482 12.9976 10.673 12.1959L15.8857 17.3962L17 16.2819L11.8492 11.1187C12.8614 9.93937 13.4712 8.40869 13.4712 6.73561C13.4712 3.01957 10.4517 0 6.73562 0ZM6.73562 0.792425C10.0229 0.792425 12.6788 3.44829 12.6788 6.73561C12.6788 10.0229 10.0229 12.6788 6.73562 12.6788C3.44829 12.6788 0.792425 10.0229 0.792425 6.73561C0.792425 3.44829 3.44829 0.792425 6.73562 0.792425Z" fill="#878787" fill-opacity="0.52941"/>
</svg>
